<svg xmlns="http://www.w3.org/2000/svg" viewBox="0 0 100 100" preserveAspectRatio="xMidYMid" width="224" height="224" style="shape-rendering: auto; display: block; background: rgba(255, 255, 255, 0.42);" monica-translate-exclude-el="m" xmlns:xlink="http://www.w3.org/1999/xlink"><g><g transform="translate(50 50)">
<g>
<animateTransform repeatCount="indefinite" dur="0.1597444089456869s" keyTimes="0;1" values="0;32.72727272727273" type="rotate" attributeName="transform"></animateTransform><path fill="#ff0000" d="M30.079062485390065 -7.5 L40.07906248539007 -7.5 L40.07906248539007 7.5 L30.079062485390065 7.5 A31 31 0 0 1 29.358923711001225 9.952567434165424 L29.358923711001225 9.952567434165424 L37.77145903931304 15.358975608721401 L29.66184677747907 27.977778601189122 L21.24931144916726 22.571370426633145 A31 31 0 0 1 19.317534098611755 24.245265029464456 L19.317534098611755 24.245265029464456 L23.47168422863062 33.34158498300964 L9.827204298312848 39.57281017803793 L5.673054168293984 30.47649022449275 A31 31 0 0 1 3.1429639010866786 30.840262286765107 L3.1429639010866786 30.840262286765107 L1.7198155183538284 40.738476705574435 L-13.127506109860171 38.603754131475156 L-11.704357727127322 28.70553971266583 A31 31 0 0 1 -14.029475127911686 27.64369417489832 L-14.029475127911686 27.64369417489832 L-20.57808246736454 35.2011899184409 L-31.914326082678418 25.378278909261624 L-25.365718743225568 17.82078316571904 A31 31 0 0 1 -26.747654931332466 15.670448483510805 L-26.747654931332466 15.670448483510805 L-36.34258466747744 18.4877740519251 L-40.56857302009888 4.095379447707632 L-30.973643283953912 1.2780538792933362 A31 31 0 0 1 -30.973643283953912 -1.2780538792933287 L-30.973643283953912 -1.2780538792933287 L-40.56857302009889 -4.095379447707623 L-36.342584667477446 -18.487774051925093 L-26.74765493133247 -15.670448483510798 A31 31 0 0 1 -25.365718743225575 -17.820783165719032 L-25.365718743225575 -17.820783165719032 L-31.91432608267843 -25.378278909261613 L-20.578082467364545 -35.2011899184409 L-14.029475127911693 -27.643694174898318 A31 31 0 0 1 -11.704357727127315 -28.705539712665832 L-11.704357727127315 -28.705539712665832 L-13.127506109860168 -38.603754131475156 L1.719815518353805 -40.738476705574435 L3.1429639010866577 -30.840262286765107 A31 31 0 0 1 5.673054168293977 -30.47649022449275 L5.673054168293977 -30.47649022449275 L9.827204298312836 -39.57281017803793 L23.471684228630597 -33.34158498300965 L19.317534098611738 -24.24526502946447 A31 31 0 0 1 21.24931144916727 -22.571370426633134 L21.24931144916727 -22.571370426633134 L29.66184677747908 -27.977778601189108 L37.77145903931303 -15.358975608721408 L29.35892371100122 -9.952567434165433 A31 31 0 0 1 30.079062485390065 -7.499999999999997 M0 -26A26 26 0 1 0 0 26 A26 26 0 1 0 0 -26"></path></g></g><g></g></g><!-- [ldio] generated by https://loading.io --></svg>